<?xml version="1.0" encoding="utf-8"?>
<!-- Generator: Adobe Illustrator 23.0.3, SVG Export Plug-In . SVG Version: 6.00 Build 0)  -->
<svg version="1.1" id="Layer_1" xmlns="http://www.w3.org/2000/svg" xmlns:xlink="http://www.w3.org/1999/xlink" x="0px" y="0px"
	 viewBox="0 0 243 48" style="enable-background:new 0 0 243 48;" xml:space="preserve">
<style type="text/css">
	.st0{fill:#345EAA;}
</style>
<g>
	<polygon class="st0" points="41.12,12.11 35.7,31.67 29.32,12.11 22.51,12.11 16.13,31.67 10.71,12.11 2.76,12.11 11.62,41.19 
		19.8,41.19 25.95,21.38 32.09,41.19 40.22,41.19 49.07,12.11 	"/>
	<path class="st0" d="M100.74,11.35c-3.43,0.06-6.66,1.62-8.9,4.61l-0.06-3.73l-0.02-1.16L91.6,1.15l-7.65,0.13l0.68,40.15
		l7.65-0.13l-0.06-3.73c2.34,2.85,5.55,4.36,9.05,4.3c7.34-0.12,12.79-5.76,12.63-15.45C113.72,16.92,108.14,11.23,100.74,11.35z
		 M98.73,35.11c-2.47,0.04-5.32-1.3-6.62-3.14l-0.02-1.38c0.95,1.35,3.05,2.34,4.86,2.31c3.27-0.06,5.39-2.57,5.33-6.28
		c-0.06-3.71-2.27-6.2-5.54-6.14c-1.81,0.03-3.87,1.13-4.78,2.56l-0.02-1.35c1.23-1.95,4.04-3.44,6.51-3.48
		c4.45-0.08,7.46,3.31,7.55,8.36C106.08,31.62,103.19,35.04,98.73,35.11z"/>
	<polygon class="st0" points="202.8,26.26 212.55,12.11 204,12.11 198.04,21.08 192.02,12.11 183.47,12.11 193.17,26.26 
		182.87,41.19 191.36,41.19 198.04,31.37 204.67,41.19 213.22,41.19 	"/>
	<path class="st0" d="M222.95,20.79c-0.11-0.2-0.17-0.42-0.17-0.67c0-1.63,1.81-2.89,4.58-2.89c3.55,0,6.86,1.51,8.61,3.37
		l3.07-5.24c-2.89-2.29-6.8-3.97-11.74-3.97c-7.65,0-11.92,4.27-11.92,9.15c0,1.7,0.39,3.05,1.03,4.15
		c3.72,6.31,16.25,4.09,16.25,8.19c0,1.81-1.57,3.13-4.88,3.13c-3.61,0-7.95-1.99-10.05-3.97l-3.31,5.36
		c3.07,2.83,7.95,4.52,13.01,4.52c8.07,0,12.58-4.03,12.58-9.33C240,21.52,224.72,24.08,222.95,20.79z"/>
	<path class="st0" d="M136.47,11.38c-4.76,0-8.31,2.29-10.18,4.52v-3.21v-0.58h-7.65v18.37v10.71h7.65V25.65v-4.04
		c1.26-1.75,3.61-3.43,6.62-3.43c3.25,0,5.36,1.38,5.36,5.42v17.58h7.65V20.66C145.92,15,142.85,11.38,136.47,11.38z"/>
	<path class="st0" d="M80.05,27.4c0-9.51-5.9-16.02-14.57-16.02c-1.29,0-2.52,0.15-3.69,0.42c-6.83,1.6-11.36,7.61-11.36,14.81
		c0,6.14,2.9,10.82,7.4,13.31c0.46,0.25,0.94,0.48,1.43,0.69c2.01,0.85,4.28,1.3,6.71,1.3c2.12,0,4.25-0.31,6.21-0.91
		c2.22-0.68,4.24-1.72,5.77-3.13l-3.37-4.94c-1.87,1.81-5.3,2.89-7.77,2.89c-3.35,0-5.78-1.42-7.15-3.47c-0.6-0.91-1-1.93-1.17-3.02
		c-0.03-0.16-0.04-0.25-0.04-0.25h21.62V27.4z M58.32,23.91c0.36-2.89,2.41-6.44,7.17-6.44c5.06,0,6.98,3.67,7.16,6.44H58.32z"/>
	<path class="st0" d="M179.47,27.4c0-9.51-5.9-16.02-14.57-16.02c-1.52,0-2.96,0.21-4.31,0.58c-0.01,0-0.02,0.01-0.03,0.01
		c-0.2,0.06-0.4,0.12-0.6,0.18c0,0,0,0-0.01,0c-1.01,0.33-1.97,0.76-2.85,1.29c-0.01,0.01-0.02,0.01-0.03,0.02
		c-0.16,0.1-0.33,0.2-0.49,0.3c-0.02,0.01-0.04,0.03-0.07,0.04c-0.16,0.1-0.31,0.21-0.46,0.31c-0.02,0.01-0.04,0.03-0.05,0.04
		c-0.64,0.46-1.24,0.97-1.79,1.53c-0.02,0.02-0.03,0.03-0.05,0.05c-0.11,0.12-0.23,0.24-0.34,0.36c-0.04,0.04-0.08,0.08-0.12,0.13
		c-0.1,0.11-0.2,0.23-0.3,0.34c-0.04,0.05-0.09,0.11-0.13,0.16c-0.09,0.11-0.18,0.23-0.27,0.34c-0.04,0.06-0.09,0.12-0.13,0.18
		c-0.09,0.12-0.17,0.23-0.26,0.35c-0.04,0.05-0.07,0.11-0.11,0.17c-0.17,0.25-0.33,0.5-0.49,0.76c-0.03,0.05-0.06,0.09-0.08,0.14
		c-0.06,0.11-0.12,0.22-0.18,0.32c-0.05,0.09-0.1,0.18-0.15,0.27c-0.05,0.1-0.11,0.21-0.16,0.31c-0.05,0.1-0.1,0.2-0.14,0.3
		c-0.05,0.1-0.09,0.21-0.14,0.31c-0.05,0.11-0.09,0.22-0.14,0.33c-0.04,0.1-0.08,0.2-0.12,0.3c-0.05,0.12-0.09,0.24-0.13,0.36
		c-0.03,0.09-0.07,0.19-0.1,0.28c-0.05,0.16-0.1,0.32-0.15,0.49c-0.02,0.06-0.04,0.11-0.05,0.17c-0.06,0.22-0.12,0.44-0.17,0.66
		c-0.02,0.08-0.04,0.16-0.05,0.24c-0.03,0.15-0.07,0.3-0.1,0.45c-0.02,0.09-0.03,0.18-0.05,0.27c-0.03,0.14-0.05,0.29-0.07,0.43
		c-0.01,0.09-0.03,0.19-0.04,0.28c-0.02,0.15-0.04,0.29-0.05,0.44c-0.01,0.09-0.02,0.18-0.03,0.28c-0.01,0.16-0.02,0.33-0.03,0.49
		c0,0.08-0.01,0.16-0.01,0.24c-0.01,0.24-0.02,0.49-0.02,0.73c0,0.2,0,0.4,0.01,0.6c0,0.07,0.01,0.13,0.01,0.2
		c0.01,0.13,0.01,0.27,0.02,0.4c0,0.08,0.01,0.15,0.02,0.23c0.01,0.12,0.02,0.24,0.03,0.35c0.01,0.08,0.02,0.16,0.03,0.24
		c0.01,0.11,0.02,0.22,0.04,0.33c0.01,0.08,0.02,0.16,0.03,0.24c0.02,0.11,0.03,0.21,0.05,0.32c0.01,0.08,0.03,0.16,0.04,0.24
		c0.02,0.11,0.04,0.21,0.06,0.31c0.02,0.08,0.03,0.16,0.05,0.24c0.02,0.1,0.05,0.21,0.07,0.31c0.02,0.08,0.04,0.15,0.05,0.23
		c0.03,0.11,0.06,0.21,0.08,0.32c0.02,0.07,0.04,0.14,0.06,0.21c0.03,0.12,0.07,0.23,0.1,0.34c0.02,0.06,0.03,0.11,0.05,0.17
		c0.05,0.17,0.11,0.34,0.17,0.5c0.01,0.04,0.03,0.07,0.04,0.11c0.05,0.13,0.1,0.26,0.15,0.38c0.03,0.06,0.05,0.13,0.08,0.19
		c0.04,0.1,0.08,0.2,0.13,0.29c0.03,0.07,0.06,0.14,0.09,0.2c0.04,0.09,0.08,0.18,0.13,0.27c0.03,0.07,0.07,0.14,0.11,0.21
		c0.04,0.08,0.09,0.17,0.13,0.25c0.04,0.07,0.08,0.14,0.11,0.21c0.05,0.08,0.09,0.16,0.14,0.24c0.04,0.07,0.08,0.14,0.12,0.2
		c0.05,0.08,0.1,0.16,0.14,0.23c0.04,0.07,0.08,0.13,0.13,0.2c0.05,0.08,0.1,0.15,0.15,0.23c0.04,0.06,0.09,0.13,0.13,0.19
		c0.05,0.08,0.11,0.15,0.17,0.22c0.04,0.06,0.09,0.12,0.13,0.18c0.06,0.08,0.12,0.16,0.19,0.23c0.04,0.05,0.08,0.11,0.13,0.16
		c0.1,0.12,0.21,0.25,0.32,0.37c0.04,0.05,0.09,0.1,0.14,0.15c0.07,0.07,0.13,0.15,0.2,0.22c0.05,0.06,0.11,0.11,0.16,0.16
		c0.06,0.06,0.13,0.13,0.19,0.19c0.06,0.06,0.12,0.11,0.18,0.17c0.06,0.06,0.13,0.12,0.19,0.18c0.06,0.05,0.12,0.11,0.18,0.16
		c0.06,0.06,0.13,0.11,0.19,0.17c0.06,0.05,0.13,0.11,0.19,0.16c0.07,0.05,0.13,0.11,0.2,0.16c0.07,0.05,0.13,0.1,0.2,0.15
		c0.07,0.05,0.14,0.1,0.2,0.15c0.07,0.05,0.13,0.1,0.2,0.14c0.07,0.05,0.14,0.1,0.21,0.14c0.07,0.05,0.14,0.09,0.21,0.14
		c0.07,0.05,0.15,0.09,0.22,0.14c0.07,0.04,0.14,0.09,0.21,0.13c0.08,0.05,0.16,0.09,0.24,0.14c0.07,0.04,0.13,0.08,0.2,0.11
		c0,0,0,0,0,0l0,0c0.46,0.25,0.94,0.48,1.43,0.69c2.01,0.85,4.28,1.3,6.71,1.3c2.12,0,4.25-0.31,6.21-0.91
		c2.22-0.68,4.24-1.72,5.77-3.13l-3.37-4.94c-1.87,1.81-5.3,2.89-7.77,2.89c-3.35,0-5.78-1.42-7.15-3.47c-0.6-0.91-1-1.93-1.17-3.02
		c-0.03-0.16-0.04-0.25-0.04-0.25h21.62V27.4z M157.73,23.91c0.36-2.89,2.41-6.44,7.17-6.44c5.06,0,6.98,3.67,7.16,6.44H157.73z"/>
</g>
</svg>
